:version 1.10
:name ASF
:units
  mass 1
  length 1
  angle deg
:documentation
  ASF file generated by Kaydara
:root
  axis xyz
  order  tx ty tz rx ry rz
  position 0 0 0
  orientation 0 0 0
:bonedata
  begin
    id 1
    name RightUpLegDummy
    direction -0.65628 -0.754516 0.00165102
    length 4.76918
    axis 0 0 0 xyz
  end
  begin
    id 2
    name RightUpLeg
    direction -0.145584 -0.923362 0.355256
    length 17.9961
    axis -24.7611 -13.1006 1.78531 xyz
    dof rx ry rz
  end
  begin
    id 3
    name RightLeg
    direction 0.263379 0.172355 -0.949171
    length 13.3386
    axis 89.6202 -21.1929 12.3855 xyz
    dof rx ry rz
  end
  begin
    id 4
    name RightFoot
    direction 0.224283 -0.968777 -0.105675
    length 5.86697
    axis 56.995 -39.6905 17.3365 xyz
    dof rx ry rz
  end
  begin
    id 5
    name RightToes
    direction -0.0806345 -0.9037 0.420506
    length 4.75197
    axis 146.825 -39.7828 17.6019 xyz
    dof rx ry rz
  end
  begin
    id 6
    name SpineDummy
    direction -3.39852e-014 1 9.33296e-014
    length 8.13779
    axis 0 0 0 xyz
  end
  begin
    id 7
    name Spine
    direction -0.156609 0.733703 0.661176
    length 7.14978
    axis 41.2365 5.68757 17.0844 xyz
    dof rx ry rz
  end
  begin
    id 8
    name Spine1
    direction 0 0 0
    length 0
    axis 42.8809 47.8308 -3.36039 xyz
    dof rx ry rz
  end
  begin
    id 9
    name HEadDummy
    direction 0.546431 0.701947 0.456819
    length 3.55512
    axis 42.8809 47.8308 -3.36039 xyz
  end
  begin
    id 10
    name HEad
    direction 0.23444 0.828559 0.508457
    length 7.35827
    axis 51.1864 49.2662 27.4903 xyz
    dof rx ry rz
  end
  begin
    id 11
    name LeftShoulder1Dummy
    direction 0.431183 0.475873 -0.766568
    length 2.49352
    axis 42.8809 47.8308 -3.36039 xyz
  end
  begin
    id 12
    name LeftShoulder1
    direction 0.268187 -0.383402 -0.883786
    length 4.48604
    axis -119.517 0.106469 35.1736 xyz
    dof rx ry rz
  end
  begin
    id 13
    name LeftArm
    direction 0.380567 -0.703221 -0.600541
    length 10.1142
    axis -5.41825 36.2925 7.8293 xyz
    dof rx ry rz
  end
  begin
    id 14
    name LeftForeArm
    direction 0.541071 -0.732356 -0.413396
    length 9.39839
    axis 4.65387 33.7604 7.81644 xyz
    dof rx ry rz
  end
  begin
    id 15
    name LeftHand
    direction 0.847511 -0.389379 -0.360707
    length 3.66142
    axis 7.65593 21.1436 -24.6758 xyz
    dof rx ry rz
  end
  begin
    id 16
    name RightShoulderDummy
    direction -0.692546 0.541855 0.476208
    length 2.49352
    axis 42.8809 47.8308 -3.36039 xyz
  end
  begin
    id 17
    name RightShoulder
    direction -0.870808 -0.316653 0.376065
    length 4.48602
    axis 141.571 51.133 -100.254 xyz
    dof rx ry rz
  end
  begin
    id 18
    name RightArm
    direction 0.366897 -0.87275 0.322015
    length 10.1142
    axis 92.3258 71.2036 138.917 xyz
    dof rx ry rz
  end
  begin
    id 19
    name RightForeArm
    direction 0.702487 -0.694568 0.155197
    length 9.39835
    axis 153.863 41.5092 -176.604 xyz
    dof rx ry rz
  end
  begin
    id 20
    name RightHand
    direction 0.79502 -0.601276 0.0800636
    length 3.66142
    axis 154.247 4.59222 142.9 xyz
    dof rx ry rz
  end
  begin
    id 21
    name LeftUpLegDummy
    direction 0.65628 -0.754516 0.00165102
    length 4.76919
    axis 0 0 0 xyz
  end
  begin
    id 22
    name LeftUpLeg
    direction -0.1277 -0.689368 0.713067
    length 17.9961
    axis -48.3385 -17.8675 0.791927 xyz
    dof rx ry rz
  end
  begin
    id 23
    name LeftLeg
    direction 0.109849 -0.991246 -0.0732378
    length 13.3386
    axis -2.05791 -7.30784 1.72042 xyz
    dof rx ry rz
  end
  begin
    id 24
    name LeftFoot
    direction 0.0448355 -0.272614 0.961078
    length 5.86697
    axis -18.7733 -7.89606 10.2113 xyz
    dof rx ry rz
  end
  begin
    id 25
    name LeftToes
    direction -0.18506 0.293668 0.937823
    length 4.75197
    axis 71.2267 -7.89606 10.2113 xyz
    dof rx ry rz
  end
:hierarchy
  begin
    root RightUpLegDummy SpineDummy LeftUpLegDummy
    RightUpLegDummy RightUpLeg
    RightUpLeg RightLeg
    RightLeg RightFoot
    RightFoot RightToes
    SpineDummy Spine
    Spine Spine1
    Spine1 HEadDummy LeftShoulder1Dummy RightShoulderDummy
    HEadDummy HEad
    LeftShoulder1Dummy LeftShoulder1
    LeftShoulder1 LeftArm
    LeftArm LeftForeArm
    LeftForeArm LeftHand
    RightShoulderDummy RightShoulder
    RightShoulder RightArm
    RightArm RightForeArm
    RightForeArm RightHand
    LeftUpLegDummy LeftUpLeg
    LeftUpLeg LeftLeg
    LeftLeg LeftFoot
    LeftFoot LeftToes
  end

:SAMPLES-PER-SECOND 30
:FULLY-SPECIFIED
:DEGREES
657
root  -20.119 39.2699 29.9575 -3.45596 38.1207 3.60049
RightUpLeg  1.32971 13.9446 -2.78811
RightLeg  -76.1701 -15.7873 5.63667
RightFoot  30.2693 2.91913 -14.915
RightToes  -1.27222e-014 -6.36111e-015 6.36111e-015
Spine  -36.3999 -23.8853 -21.7187
Spine1  6.95752 -13.7744 47.7773
HEad  18.8561 -55.8502 -17.4674
LeftShoulder1  6.36111e-015 -1.33558e-015 6.49777e-015
LeftArm  30.5401 -13.2269 -49.4621
LeftForeArm  -5.79176 -28.1979 0.750304
LeftHand  -0.767994 0.405689 -10.783
RightShoulder  -4.77083e-015 -6.36111e-015 -3.18055e-015
RightArm  52.3346 -42.4981 -24.1981
RightForeArm  -7.76027 -10.5399 2.29836
RightHand  3.30532 -3.961 -15.5027
LeftUpLeg  41.3941 26.2455 11.3431
LeftLeg  -17.3927 -4.60705 -3.92942
LeftFoot  -1.86466 0.739622 -2.56855
LeftToes  9.54166e-015 -1.91609e-011 -2.3878e-011
658
root  -19.6778 39.402 30.4019 -3.38712 37.6423 3.31914
RightUpLeg  1.4448 14.5845 -2.16627
RightLeg  -85.911 -13.708 5.21158
RightFoot  30.784 3.88315 -16.2212
RightToes  -1.27222e-014 -6.36111e-015 6.36111e-015
Spine  -37.4518 -23.903 -20.892
Spine1  6.45744 -13.8283 48.8775
HEad  17.7957 -56.584 -17.6051
LeftShoulder1  6.36111e-015 -1.33558e-015 6.49777e-015
LeftArm  30.1563 -14.1766 -49.1575
LeftForeArm  -5.77844 -28.2525 0.763442
LeftHand  -0.793454 0.257307 -10.5756
RightShoulder  -4.77083e-015 -6.36111e-015 -3.18055e-015
RightArm  53.2462 -43.51 -30.9595
RightForeArm  -2.97565 -6.72429 6.07491
RightHand  3.20423 -3.89533 -15.0394
LeftUpLeg  43.1762 25.8176 11.2495
LeftLeg  -19.5833 -4.05601 -4.60641
LeftFoot  -1.73606 0.706899 -2.42885
LeftToes  9.54166e-015 -1.91609e-011 -2.3878e-011
659
root  -19.2674 39.5517 30.8715 -3.2635 36.945 2.90942
RightUpLeg  1.62879 14.8443 -1.15563
RightLeg  -94.7025 -11.7363 1.84472
RightFoot  32.0578 4.16931 -16.7637
RightToes  -1.27222e-014 -6.36111e-015 6.36111e-015
Spine  -38.5856 -23.7 -19.8698
Spine1  5.90368 -13.8598 50.316
HEad  16.2616 -56.1177 -17.5049
LeftShoulder1  6.36111e-015 -1.33558e-015 6.49777e-015
LeftArm  29.9496 -14.5513 -49.0049
LeftForeArm  -5.77099 -27.3893 0.562351
LeftHand  -0.738058 0.338196 -10.1889
RightShoulder  -4.77083e-015 -6.36111e-015 -3.18055e-015
RightArm  54.2161 -43.7708 -35.835
RightForeArm  1.03897 -3.75191 8.81428
RightHand  3.01944 -3.66423 -14.3758
LeftUpLeg  44.8923 25.5424 11.4686
LeftLeg  -21.8464 -3.68362 -5.07455
LeftFoot  -1.4759 0.750415 -2.5619
LeftToes  9.54166e-015 -1.91609e-011 -2.3878e-011
660
root  -18.8753 39.6888 31.3399 -3.23479 35.7937 2.43318
RightUpLeg  1.61934 13.7454 0.127115
RightLeg  -101.407 -11.4575 -4.71096
RightFoot  34.5144 2.16299 -14.7272
RightToes  -1.27222e-014 -6.36111e-015 6.36111e-015
Spine  -39.6637 -23.2323 -18.843
Spine1  5.41676 -13.7852 51.6568
HEad  14.8222 -54.8816 -17.5313
LeftShoulder1  6.36111e-015 -1.33558e-015 6.49777e-015
LeftArm  30.3961 -14.8937 -49.3701
LeftForeArm  -5.64067 -25.7497 0.190848
LeftHand  -0.660793 0.594137 -10.1588
RightShoulder  -4.77083e-015 -6.36111e-015 -3.18055e-015
RightArm  55.2882 -43.5511 -38.6447
RightForeArm  2.64179 -2.84044 9.91182
RightHand  2.93692 -3.60614 -13.9941
LeftUpLeg  46.8589 25.4215 12.213
LeftLeg  -24.1013 -3.52508 -5.60841
LeftFoot  -1.12682 0.814296 -2.78219
LeftToes  9.54166e-015 -1.91609e-011 -2.3878e-011
661
root  -18.4934 39.7223 31.8663 -3.27875 34.2431 2.07906
RightUpLeg  1.51712 13.2796 1.61691
RightLeg  -105.361 -11.6949 -9.59205
RightFoot  35.5557 -1.90694 -10.237
RightToes  -1.27222e-014 -6.36111e-015 6.36111e-015
Spine  -40.3944 -23.0091 -18.2634
Spine1  4.88796 -13.7998 52.7844
HEad  13.9907 -53.0956 -17.7921
LeftShoulder1  6.36111e-015 -1.33558e-015 6.49777e-015
LeftArm  31.7275 -15.3604 -50.416
LeftForeArm  -5.33135 -23.6294 -0.271053
LeftHand  -0.642478 0.755505 -10.4903
RightShoulder  -4.77083e-015 -6.36111e-015 -3.18055e-015
RightArm  56.3339 -43.0603 -40.1218
RightForeArm  2.12556 -3.6486 9.71479
RightHand  2.96849 -3.79483 -13.8505
LeftUpLeg  48.7976 25.4606 13.1451
LeftLeg  -25.5335 -3.10058 -6.1937
LeftFoot  -1.42052 0.851344 -2.93715
LeftToes  9.54166e-015 -1.91609e-011 -2.3878e-011
662
root  -18.1346 39.6475 32.5435 -3.31296 32.7844 2.01207
RightUpLeg  1.48929 13.7724 3.37091
RightLeg  -106.082 -11.6178 -10.9118
RightFoot  34.1245 -4.32532 -7.06408
RightToes  -1.27222e-014 -6.36111e-015 6.36111e-015
Spine  -40.7699 -23.4981 -18.2876
Spine1  4.43352 -14.1392 53.9884
HEad  13.6659 -51.0383 -17.984
LeftShoulder1  6.36111e-015 -1.33558e-015 6.49777e-015
LeftArm  33.7077 -15.7944 -51.9754
LeftForeArm  -5.02594 -21.2451 -0.714901
LeftHand  -0.691294 0.682774 -10.8133
RightShoulder  -4.77083e-015 -6.36111e-015 -3.18055e-015
RightArm  57.0096 -42.4698 -40.9323
RightForeArm  0.933676 -4.83017 8.93008
RightHand  3.00174 -3.98664 -13.7142
LeftUpLeg  50.5603 25.7793 14.1338
LeftLeg  -25.738 -2.57672 -6.36954
LeftFoot  -2.53782 0.933969 -3.3403
LeftToes  9.54166e-015 -1.91609e-011 -2.3878e-011
663
root  -17.7879 39.5254 33.341 -3.24664 32.0158 2.36842
RightUpLeg  1.75525 14.3868 5.21617
RightLeg  -104.145 -11.9246 -10.9503
RightFoot  33.7183 -2.38457 -9.20644
RightToes  -1.27222e-014 -6.36111e-015 6.36111e-015
Spine  -41.1193 -24.821 -18.8067
Spine1  4.43558 -14.9103 55.4786
HEad  13.4806 -49.3396 -17.8831
LeftShoulder1  6.36111e-015 -1.33558e-015 6.49777e-015
LeftArm  35.6984 -15.9909 -53.5254
LeftForeArm  -4.61863 -18.9543 -1.32257
LeftHand  -0.761416 0.52323 -11.1035
RightShoulder  -4.77083e-015 -6.36111e-015 -3.18055e-015
RightArm  57.1898 -41.9022 -41.0449
RightForeArm  -0.261805 -5.73202 7.9024
RightHand  2.99711 -4.03353 -13.6079
LeftUpLeg  52.4154 26.4939 15.3481
LeftLeg  -25.1593 -2.69056 -5.83297
LeftFoot  -3.71532 1.09557 -4.08541
LeftToes  9.54166e-015 -1.91609e-011 -2.3878e-011
664
root  -17.4113 39.4116 34.1635 -3.06412 32.1367 2.89185
RightUpLeg  2.40344 15.8463 7.08081
RightLeg  -101.557 -12.573 -10.354
RightFoot  36.8385 2.55098 -15.5612
RightToes  -1.27222e-014 -6.36111e-015 6.36111e-015
Spine  -41.8348 -26.5546 -19.346
Spine1  4.85728 -15.9905 57.1278
HEad  13.4662 -48.7753 -17.7354
LeftShoulder1  6.36111e-015 -1.33558e-015 6.49777e-015
LeftArm  35.4575 -15.2157 -53.1364
LeftForeArm  -2.23081 -18.6891 -3.50166
LeftHand  -0.810409 0.496637 -11.5969
RightShoulder  -4.77083e-015 -6.36111e-015 -3.18055e-015
RightArm  57.3098 -41.313 -39.968
RightForeArm  -2.00961 -6.91585 6.5535
RightHand  3.00411 -4.01969 -13.6716
LeftUpLeg  54.4318 27.1996 16.7406
LeftLeg  -24.5413 -3.67344 -4.83107
LeftFoot  -4.3374 1.30534 -4.9924
LeftToes  9.54166e-015 -1.91609e-011 -2.3878e-011
665
root  -16.9923 39.3252 35.0091 -2.92653 32.6608 2.93077
RightUpLeg  3.18361 19.1281 9.15055
RightLeg  -99.226 -12.7282 -8.18457
RightFoot  40.1302 6.56727 -20.3896
RightToes  -1.27222e-014 -6.36111e-015 6.36111e-015
Spine  -42.9637 -27.7986 -19.1735
Spine1  5.11269 -17.0415 58.4648
HEad  13.918 -49.7154 -18.0013
LeftShoulder1  6.36111e-015 -1.33558e-015 6.49777e-015
LeftArm  31.9445 -13.0338 -50.2649
LeftForeArm  3.39767 -21.0124 -7.9762
LeftHand  -0.789287 0.765556 -12.2201
RightShoulder  -4.77083e-015 -6.36111e-015 -3.18055e-015
RightArm  58.0066 -40.6031 -37.7354
RightForeArm  -4.65858 -8.87642 4.80464
RightHand  3.03931 -4.06022 -13.8052
LeftUpLeg  56.1582 27.3354 18.2381
LeftLeg  -23.8221 -5.07053 -3.58069
LeftFoot  -4.72663 1.58871 -6.1854
LeftToes  9.54166e-015 -1.91609e-011 -2.3878e-011
666
root  -16.5609 39.2668 35.8949 -3.11534 32.8658 2.17154
RightUpLeg  3.81744 23.1911 11.1962
RightLeg  -96.5416 -11.7835 -4.39621
RightFoot  39.0921 7.26526 -21.0836
RightToes  -1.27222e-014 -6.36111e-015 6.36111e-015
Spine  -44.0806 -27.848 -18.0127
Spine1  4.89282 -17.7349 59.1058
HEad  14.637 -51.7139 -18.7511
LeftShoulder1  6.36111e-015 -1.33558e-015 6.49777e-015
LeftArm  25.672 -8.78302 -45.7383
LeftForeArm  11.9524 -24.9207 -14.2934
LeftHand  -0.666822 1.37546 -12.6974
RightShoulder  -4.77083e-015 -6.36111e-015 -3.18055e-015
RightArm  59.3491 -39.8489 -35.6459
RightForeArm  -7.18911 -10.8919 3.13504
RightHand  3.06492 -4.11223 -13.8636
LeftUpLeg  57.2834 26.8663 19.8746
LeftLeg  -22.2808 -6.18674 -2.19671
LeftFoot  -5.15372 1.95616 -7.76087
LeftToes  9.54166e-015 -1.91609e-011 -2.3878e-011
667
root  -16.1485 39.2273 36.7525 -3.63023 32.6282 1.18712
RightUpLeg  4.20751 23.3783 12.4657
RightLeg  -93.0339 -11.5305 -3.24459
RightFoot  34.6128 6.45216 -19.8239
RightToes  -1.27222e-014 -6.36111e-015 6.36111e-015
Spine  -44.718 -27.1278 -16.6494
Spine1  4.64868 -18.0544 59.3708
HEad  14.8506 -53.8248 -19.4521
LeftShoulder1  6.36111e-015 -1.33558e-015 6.49777e-015
LeftArm  20.0927 -3.57745 -42.4983
LeftForeArm  19.0257 -27.7174 -19.1944
LeftHand  -0.522263 1.99417 -12.9156
RightShoulder  -4.77083e-015 -6.36111e-015 -3.18055e-015
RightArm  60.6621 -39.1083 -35.3416
RightForeArm  -8.18791 -11.7349 2.42055
RightHand  3.07172 -4.07032 -13.9739
LeftUpLeg  57.7249 25.8503 20.7313
LeftLeg  -19.5657 -6.07281 -1.52533
LeftFoot  -5.04879 2.39233 -9.48206
LeftToes  9.54166e-015 -1.91609e-011 -2.3878e-011
